PathFileType	4	(X/Y/Z)	Patient4_TMGait_0pt7_01_left_36.trc.trc
DataRate	CameraRate	NumFrames	NumMarkers	Units	OrigDataRate	OrigDataStartFrame	OrigNumFrames
84.337349397591	84.337349397591	4	33	mm	84.337349397591	71	       141
Frame#	Time	Sacral			L.Shoulder			Chest			R.Shoulder			Neck			R.ASIS			L.ASIS			R.Thigh.Superior			R.Thigh.Lateral			R.Thigh.Inferior			R.Patella			L.Thigh.Superior			L.Thigh.Lateral			L.Thigh.Inferior			L.Patella			L.Shank.Superior			L.Shank.Lateral			L.Shank.Inferior			R.Shank.Superior			R.Shank.Lateral			R.Shank.Inferior			R.Heel			R.Midfoot.Superior			R.Midfoot.Lateral			R.Toe			L.Heel			L.Midfoot.Lateral			L.Midfoot.Superior			L.Toe			L.Elbow			L.Wrist			R.Elbow			R.Wrist			
		X1	Y1	Z1	X2	Y2	Z2	X3	Y3	Z3	X4	Y4	Z4	X5	Y5	Z5	X6	Y6	Z6	X7	Y7	Z7	X8	Y8	Z8	X9	Y9	Z9	X10	Y10	Z10	X11	Y11	Z11	X12	Y12	Z12	X13	Y13	Z13	X14	Y14	Z14	X15	Y15	Z15	X16	Y16	Z16	X17	Y17	Z17	X18	Y18	Z18	X19	Y19	Z19	X20	Y20	Z20	X21	Y21	Z21	X22	Y22	Z22	X23	Y23	Z23	X24	Y24	Z24	X25	Y25	Z25	X26	Y26	Z26	X27	Y27	Z27	X28	Y28	Z28	X29	Y29	Z29	X30	Y30	Z30	X31	Y31	Z31	X32	Y32	Z32	X33	Y33	Z33	

71	42.390000000000	838.207466425187	1009.451850207938	455.623333306972	1058.001499576173	1435.933651276312	298.316536104964	1139.349340370766	1355.127581814050	466.988540582836	1040.598872440552	1433.062135961280	630.582020808409	1049.372865625270	1491.217831871416	453.486227008198	1054.927527748889	946.108338239853	594.232284782093	1062.574726227438	955.385406375126	318.595897367667	1135.645598579728	782.840733037198	565.759853109002	1099.566741977872	659.086410070643	639.241024994429	1187.057001007861	624.739441718707	557.864659518721	1225.377574440580	544.208987800234	575.586574684767	1069.956725422942	730.943062981311	356.402259544895	962.657229280324	632.461103089052	285.803937326483	1017.789913803286	540.979826465173	359.281809154895	1001.776789554105	473.239446254327	369.715761138693	965.872122441083	406.076588647592	359.207708592580	862.977817812957	307.535929011533	302.637731035313	886.518042737191	191.035984247785	378.442296059444	1213.043884308210	453.737592688390	586.950962301931	1166.538723308629	339.160366279248	654.536948385771	1235.834403410075	254.528555957981	600.401191022131	1146.399961239617	64.195044734460	576.440557554631	1309.123408506723	143.793402248796	613.509602329414	1233.271578826938	62.900331135553	645.984812277389	1434.893391344066	108.591025729393	632.795834423100	735.228799204571	47.750474091836	409.782458844475	813.656487187542	40.604748096025	334.853606001160	898.009882569595	97.462010511530	366.252924861259	1024.698209468575	38.806130606473	344.524469175909	1137.683421689529	1122.984726451721	141.666438980400	1365.174077401120	1155.574543181820	246.348778516139	917.327850960596	1101.184102561441	725.248922079176	925.162560535903	838.750091316288	736.133769948005	
72	42.401857142857	839.344700364021	1007.717032687390	457.992390555827	1057.380202849404	1434.924134247498	299.826666002305	1139.479068900953	1354.097195985113	468.077666887956	1041.127252296436	1431.588450822466	632.101620048735	1049.110950932219	1489.924614298521	454.999942697794	1056.609347415783	944.568391919718	595.345442031709	1063.121711471674	954.208685406864	319.798791328137	1135.048406939970	778.471036910072	567.046415852442	1097.077122809060	655.386559929997	640.557546659591	1183.197036072618	619.981634716425	558.235285720131	1220.322429351224	540.824253948952	575.256609426543	1068.760096803606	729.158719901986	357.011068471695	960.148906858612	631.591256050843	286.805074858795	1014.855709592619	539.487168611576	359.583488660033	998.142296436767	471.696100723168	370.003759772479	961.443452952470	404.980050197587	359.506812786189	857.201623149363	307.778339163664	302.993290800776	879.527762503747	190.892205771018	378.443148381203	1210.419625845710	450.486836166016	587.158139613819	1166.900366581904	334.678900814803	654.855272130238	1237.958527349177	251.748468568714	600.086812445992	1152.734135083870	59.461783000645	576.291262311104	1314.170914244995	142.112344235738	612.304792474587	1240.185326144328	59.567717071926	645.107362530242	1440.835935152850	109.444676119354	630.431672053622	727.056054001551	48.684425355195	409.745827820641	805.453761300111	41.046695694726	334.866132493331	889.977773842183	97.585541318752	366.160422759057	1016.388318600842	38.668860916601	344.464376449347	1139.774453834943	1122.454451489597	144.041000944939	1366.087401417925	1156.963611491535	250.346330798034	915.923983503373	1100.119029237911	725.627805367737	922.127334701190	837.615114873154	735.041380161725	
73	42.413714285714	840.680600871323	1005.814079338317	460.508130695046	1056.663121405104	1433.786308205845	301.445545932904	1139.609599196985	1353.025796755584	469.282772494689	1041.646604738990	1430.030083244386	633.764911818971	1048.785007712480	1488.537223020175	456.656901874734	1058.447058118829	942.889073757667	596.609515653596	1063.929188724389	952.918467000579	321.119734121889	1134.914598554207	774.303959280246	568.497283724108	1095.031611478468	651.695099732167	641.697424180497	1180.106704434847	615.528039243201	558.743335363798	1215.683497504720	537.092278901585	575.100802690248	1067.874647352831	727.318100890121	357.681905484598	957.909464525654	630.726492393600	287.909461332952	1012.265405942023	537.951826153183	359.875303277783	994.875352958069	470.064585292261	370.272505987609	957.279500345988	403.834672825150	359.779320961685	851.580073828776	308.097257566409	303.324130716472	872.606216574492	190.785855502358	378.362877888728	1207.424027076867	446.765343029190	587.264820822667	1165.473576296291	330.217316200721	654.566673122297	1237.579302343167	248.416672733652	599.343585127026	1154.728901703270	55.482356879798	575.144099227892	1315.405575365709	139.299049650300	610.622864247411	1242.391043270757	56.191114330837	643.581758760385	1442.443028092605	107.875821778704	628.145007965435	718.884891584942	49.715916014648	409.641618656946	797.261994986819	41.481100442304	334.836927414589	881.978726555687	97.729149631395	365.983087926255	1008.095130715625	38.541931204267	344.401019201741	1140.962621573417	1121.561337728627	146.323135960300	1366.318519379595	1157.070612944268	254.158888785195	915.375415847991	1098.760687458201	726.564385421942	920.693873626208	836.166367122951	734.684748530358	
74	42.425571428571	842.206653567908	1003.790155659042	463.142241678483	1055.876797730750	1432.515402429202	303.171019992512	1139.754428399424	1351.937253266269	470.625214576073	1042.149726258224	1428.437043817553	635.572590373069	1048.411652563235	1487.087655195184	458.446253892370	1060.429099554003	941.092055168209	598.054796677008	1065.001105650044	951.541947888708	322.587074290348	1135.285982483415	770.383835220716	570.130726288975	1093.378927513890	648.020136326416	642.591207919096	1177.844453385939	611.408853242901	559.408445568716	1211.550739093743	533.060194576861	575.058221506465	1067.310718986447	725.458340555226	358.391103952902	955.942027408664	629.902510649931	289.097756636315	1010.029848816952	536.402741097219	360.134883178774	991.997148463862	468.359618572975	370.487922827804	953.383380685747	402.665354910023	360.003893846516	846.114935268105	308.526599637043	303.623616506265	865.768192758523	190.739949390649	378.184598040303	1204.180796432039	442.630429151972	587.199652559426	1162.503725845226	325.751444909971	653.722821429448	1234.963357803906	244.511879361138	598.177307155626	1152.678283121951	52.120357209558	573.222556234728	1313.199714767156	135.373072859768	608.482310497994	1240.287793569400	52.747181694465	641.574480694936	1440.183382774224	103.934954530601	625.861304146923	710.717360484013	50.874966882244	409.461627690079	789.079985828932	41.908868514260	334.759636128176	874.032116792261	97.888305238790	365.701770675600	999.821466036970	38.433064432983	344.333139066787	1141.257648557810	1120.262682127639	148.506959717199	1365.921805277427	1155.868213748254	257.760962860553	915.745535428778	1097.128635945667	728.068906548256	920.940402530838	834.428393001487	735.016363262878	
